<?xml version="1.0" encoding="UTF-8"?><svg id="Design" xmlns="http://www.w3.org/2000/svg" viewBox="0 0 256 256"><defs><style>.cls-1{fill:none;stroke:#2175d9;stroke-linecap:round;stroke-linejoin:round;}.cls-2{fill:#2175d9;}.cls-2,.cls-3,.cls-4{stroke-width:0px;}.cls-3{fill:#d3e3f7;}.cls-4{fill:#00d7ff;}</style></defs><line class="cls-1" x1="144.31" y1="174.18" x2="208.47" y2="218.18"/><line class="cls-1" x1="47.63" y1="218.11" x2="111.53" y2="174.29"/><path class="cls-2" d="m212.26,124.47c-.13-.13-.27-.25-.42-.36-4.39-3.8-10.1-6.1-16.34-6.1H60.5c-6.19,0-11.85,2.26-16.22,6-.26.18-.49.4-.72.63-4.96,4.57-8.07,11.11-8.07,18.37v60c0,13.79,11.21,25,25,25h135c13.79,0,25-11.21,25-25v-60c0-7.34-3.18-13.95-8.24-18.53Zm-16.76,3.53c1.36,0,2.68.2,3.93.54l-68.29,49.06s-.08.05-.11.08c-1.75,1.33-4.3,1.33-6.05,0-.04-.03-.08-.06-.11-.08l-68.36-49.04c1.27-.35,2.61-.56,3.99-.56h135Zm15,75c0,8.27-6.73,15-15,15H60.5c-8.27,0-15-6.73-15-15v-60c0-3.05.92-5.88,2.49-8.25l71,50.93c2.62,1.97,5.73,3.01,9.02,3.01s6.4-1.04,9.02-3.02l70.97-50.98c1.58,2.38,2.51,5.23,2.51,8.29v60Z"/><path class="cls-3" d="m195.5,98h-55.46l-8.54,8.54c-.94.94-2.21,1.46-3.54,1.46h67.53c8.27,0,15,6.73,15,15h0c6.07,4.58,10,11.84,10,20v-20c0-13.79-11.21-25-25-25Z"/><path class="cls-3" d="m115.9,98h-55.4c-13.79,0-25,11.21-25,25v20c0-8.16,3.93-15.42,10-19.99h0c0-8.28,6.73-15.01,15-15.01h67.47c-1.33,0-2.6-.53-3.54-1.46l-8.54-8.54Z"/><path class="cls-4" d="m154.99,75.97c-1.95-1.95-5.12-1.95-7.07,0l-14.92,14.92v-57.9c0-2.76-2.24-5-5-5s-5,2.24-5,5v57.96l-14.92-14.92c-1.95-1.95-5.12-1.95-7.07,0-1.95,1.95-1.95,5.12,0,7.07l23.43,23.43c.94.94,2.21,1.46,3.54,1.46,0,0,.01,0,.02,0s.01,0,.02,0c1.47,0,2.77-.64,3.69-1.65l23.31-23.31c1.95-1.95,1.95-5.12,0-7.07Z"/></svg>